<svg version="1.1" viewBox="3.9589442815249267 29.040000000000003 143.841642228739 154" xmlns:xlink="http://www.w3.org/1999/xlink" xmlns="http://www.w3.org/2000/svg" style="max-height: 500px" width="143.841642228739" height="154">
<g id="surface1">
<path d="M 0 110.003906 L 0 220.007812 L 75.175781 219.824219 L 150.355469 219.644531 L 150.535156 109.824219 L 150.714844 0 L 0 0 L 0 110.003906 M 0.347656 110.355469 C 0.347656 170.855469 0.429688 195.710938 0.53125 165.589844 C 0.636719 135.464844 0.636719 85.964844 0.53125 55.589844 C 0.429688 25.210938 0.347656 49.855469 0.347656 110.355469 M 78.996094 40.507812 C 78.0625 40.878906 74.542969 43.203125 71.175781 45.667969 C 62.820312 51.785156 59.726562 53.664062 56.355469 54.671875 C 53.734375 55.453125 52.898438 55.332031 46.9375 53.269531 C 36.613281 49.703125 35.710938 50.273438 30.582031 63.6875 C 26.617188 74.058594 24.917969 75.960938 15.589844 80.496094 C 4.257812 86 3.808594 88.703125 13.675781 91.921875 C 19.886719 93.949219 28.4375 98.785156 32.855469 102.773438 C 34.316406 104.085938 35.816406 105.054688 36.195312 104.921875 C 36.574219 104.785156 44.757812 98.324219 54.375 90.5625 C 71.597656 76.667969 73.65625 74.480469 70.015625 73.957031 C 69.238281 73.84375 66.457031 75.042969 63.839844 76.617188 C 58.480469 79.847656 57.582031 80.0625 57.582031 78.128906 C 57.582031 75.609375 65.78125 70.152344 73.152344 67.765625 C 78.191406 66.136719 84.902344 66.707031 90.011719 69.203125 C 95.152344 71.714844 101.800781 78.949219 103.753906 84.15625 C 105.5625 88.980469 108.769531 101.054688 108.769531 103.039062 C 108.769531 103.808594 109.050781 104.335938 109.394531 104.203125 C 109.738281 104.074219 114.105469 99.496094 119.097656 94.03125 C 124.089844 88.566406 131.058594 81.164062 134.585938 77.578125 C 139.871094 72.199219 140.996094 70.671875 140.996094 68.859375 C 140.996094 67.652344 140.667969 66.335938 140.265625 65.933594 C 139.867188 65.535156 137.101562 64.597656 134.121094 63.855469 C 125.375 61.671875 124.875 61.261719 120.851562 52.867188 C 118.113281 47.15625 116.902344 45.347656 115.609375 45.023438 C 114.515625 44.75 111.71875 45.515625 107.621094 47.207031 C 97.511719 51.382812 93.902344 50.742188 87.867188 43.691406 C 84.328125 39.558594 82.773438 39 78.996094 40.507812 M 69.515625 84.117188 L 67.59375 90.484375 L 70.054688 92.957031 L 72.511719 95.429688 L 72.429688 88.699219 C 72.382812 84.996094 72.140625 81.019531 71.890625 79.859375 C 71.492188 78.007812 71.207031 78.515625 69.515625 84.117188 M 89.164062 89.34375 C 86.296875 90.644531 85.269531 92.1875 84.296875 96.648438 C 84.066406 97.699219 84.167969 98.734375 84.523438 98.953125 C 84.875 99.171875 87.296875 98.351562 89.90625 97.132812 C 93.890625 95.269531 95.171875 94.988281 97.929688 95.367188 C 99.734375 95.613281 101.953125 96.300781 102.855469 96.890625 C 104.90625 98.234375 104.914062 97.636719 102.878906 94.054688 C 100.917969 90.59375 97.210938 87.996094 94.265625 88.015625 C 93.054688 88.023438 90.757812 88.621094 89.164062 89.34375 M 59.277344 92.90625 C 55.839844 94.464844 53.054688 97.867188 51.96875 101.839844 C 50.5 107.214844 50.871094 107.632812 54.308594 104.464844 C 57.136719 101.863281 61.082031 100.078125 64.023438 100.070312 C 65.175781 100.066406 67.816406 93.285156 67.109375 92.144531 C 66.476562 91.117188 62.332031 91.523438 59.277344 92.90625 M 85.148438 104.164062 C 77.570312 111.648438 77.421875 111.859375 78.199219 113.902344 C 78.816406 115.527344 78.789062 116.152344 78.0625 116.71875 C 77.484375 117.175781 77.214844 118.601562 77.351562 120.507812 C 77.765625 126.226562 73.46875 132 68.796875 132 C 67.851562 132 65.535156 131.476562 63.644531 130.832031 L 60.214844 129.664062 L 54.867188 135.125 C 48.875 141.246094 46.734375 141.9375 46.34375 137.890625 C 46.199219 136.410156 45.65625 135.46875 44.78125 135.191406 C 43.765625 134.871094 43.386719 133.960938 43.226562 131.429688 C 43.03125 128.457031 42.761719 127.984375 40.714844 127.03125 C 38.207031 125.867188 37.765625 124.207031 39.503906 122.46875 C 41.175781 120.800781 42.355469 121.089844 45.515625 123.941406 C 48.246094 126.402344 48.347656 126.433594 47.667969 124.644531 C 45.441406 118.800781 44.351562 117.804688 40.160156 117.804688 C 37.210938 117.804688 35.546875 119.378906 35.546875 122.160156 C 35.546875 124.613281 36.378906 126.367188 39.234375 129.925781 C 40.65625 131.699219 41.488281 133.816406 41.996094 136.953125 C 43.21875 144.527344 44.167969 145.183594 50.566406 142.894531 C 52.375 142.246094 54.347656 141.90625 54.949219 142.136719 C 55.546875 142.367188 57.214844 144.570312 58.648438 147.035156 C 60.082031 149.5 62.671875 153.324219 64.398438 155.539062 C 66.121094 157.75 67.546875 159.824219 67.558594 160.148438 C 67.601562 161.167969 78.390625 165.914062 81.804688 166.417969 C 83.675781 166.695312 86.363281 166.546875 88.140625 166.066406 C 94.726562 164.296875 103.761719 151.847656 106.238281 141.136719 C 108.363281 131.9375 108.910156 121.691406 107.75 112.921875 C 106.566406 103.984375 105.925781 102.167969 105.925781 107.753906 C 105.925781 109.769531 105.609375 111.417969 105.226562 111.417969 C 104.808594 111.417969 104.703125 112.695312 104.964844 114.589844 C 105.316406 117.144531 105.042969 118.496094 103.5625 121.515625 C 101.402344 125.921875 98.753906 127.742188 94.496094 127.742188 C 91.828125 127.742188 91.09375 127.355469 88.386719 124.535156 C 86.691406 122.773438 85.308594 120.839844 85.308594 120.246094 C 85.308594 118.746094 88.519531 115.675781 90.074219 115.6875 C 90.777344 115.695312 91.8125 115.992188 92.378906 116.347656 C 94.054688 117.40625 95.972656 115.898438 95.972656 113.523438 C 95.972656 112.023438 95.613281 111.394531 94.726562 111.335938 C 92.480469 111.183594 91.425781 111.53125 90.515625 112.726562 C 89.816406 113.644531 89.613281 113.683594 89.597656 112.894531 C 89.582031 112.339844 90.105469 111.300781 90.753906 110.585938 C 92.601562 108.542969 91.496094 108.414062 88.851562 110.363281 C 85.761719 112.636719 85.308594 112.589844 85.308594 109.964844 C 85.308594 105.550781 89 101.210938 93.46875 100.375 C 94.984375 100.089844 96.074219 99.339844 96.582031 98.226562 C 97.316406 96.617188 97.230469 96.515625 95.128906 96.515625 C 93.246094 96.515625 91.695312 97.703125 85.148438 104.164062 M 63.980469 102.082031 C 63.980469 102.410156 65.339844 103.082031 67.003906 103.578125 C 68.828125 104.121094 71.105469 105.609375 72.753906 107.335938 L 75.484375 110.195312 L 73.914062 107.082031 C 71.484375 102.253906 70.542969 101.484375 67.070312 101.484375 C 65.371094 101.484375 63.980469 101.753906 63.980469 102.082031 M 90.570312 102.832031 C 88.695312 103.972656 85.414062 109.632812 86.183594 110.402344 C 86.308594 110.523438 87.808594 109.6875 89.519531 108.539062 C 93.496094 105.871094 96.210938 105.878906 100.464844 108.570312 L 103.8125 110.691406 L 102.410156 107.949219 C 100.605469 104.421875 97.089844 101.484375 94.671875 101.488281 C 93.628906 101.488281 91.78125 102.09375 90.570312 102.832031 M 113.003906 104.351562 C 110.878906 106.472656 110.183594 108.84375 110.238281 113.773438 L 110.285156 118.160156 L 111.234375 115.125 C 112.542969 110.945312 114.226562 108.582031 115.894531 108.582031 C 116.664062 108.582031 117.296875 108.898438 117.296875 109.289062 C 117.296875 109.679688 116.652344 110 115.859375 110 C 114.351562 110 113.609375 111.378906 112.121094 116.925781 C 111.335938 119.863281 111.378906 120.011719 113.59375 122.03125 C 116.535156 124.714844 116.585938 126.324219 113.730469 126.324219 C 111.808594 126.324219 111.628906 126.140625 112.019531 124.585938 C 112.296875 123.484375 112.015625 122.253906 111.246094 121.214844 C 110.074219 119.632812 110.050781 119.742188 110.449219 124.46875 C 110.925781 130.066406 112.300781 132.710938 114.742188 132.710938 C 117.277344 132.710938 118.347656 129.582031 117.058594 125.933594 C 114.878906 119.777344 114.910156 117.617188 117.25 112.132812 C 118.449219 109.316406 119.429688 106.472656 119.429688 105.808594 C 119.429688 102.8125 115.449219 101.910156 113.003906 104.351562 M 61.34375 105.679688 C 59.207031 107.015625 56.160156 111.699219 56.160156 113.652344 C 56.160156 114.132812 57.039062 113.6875 58.117188 112.660156 C 62.023438 108.941406 66.636719 108.546875 71.710938 111.5 C 73.03125 112.269531 74.257812 112.75 74.4375 112.574219 C 74.980469 112.027344 73.464844 109.765625 70.910156 107.3125 C 67.789062 104.316406 64.441406 103.746094 61.34375 105.679688 M 27.167969 111.914062 C 23.542969 114.871094 20.667969 117.386719 20.785156 117.503906 C 21.105469 117.820312 38.886719 114.472656 39.765625 113.929688 C 40.179688 113.675781 40.519531 113.164062 40.519531 112.800781 C 40.519531 111.78125 35.488281 106.445312 34.574219 106.496094 C 34.128906 106.519531 30.800781 108.957031 27.167969 111.914062 M 61.542969 111.824219 C 59.980469 113.386719 60.152344 114.441406 61.882812 113.890625 C 62.742188 113.621094 64.054688 113.898438 65.082031 114.570312 C 67.523438 116.167969 67.460938 119.484375 64.957031 121.125 C 63.203125 122.273438 62.96875 122.273438 60.992188 121.140625 C 58.121094 119.496094 56.871094 119.617188 56.871094 121.546875 C 56.871094 123.546875 60.238281 128.613281 61.371094 128.316406 C 61.828125 128.195312 65.007812 125.195312 68.433594 121.652344 C 74.269531 115.617188 74.585938 115.136719 73.410156 114.109375 C 69.675781 110.839844 63.6875 109.6875 61.542969 111.824219 M 85.8125 127.472656 C 85.570312 127.71875 86.183594 128.980469 87.175781 130.28125 C 89.214844 132.949219 89.039062 134.46875 86.402344 136.941406 C 84.921875 138.328125 84.21875 138.492188 81.449219 138.078125 C 77.671875 137.511719 76.839844 136.394531 77.226562 132.414062 C 77.441406 130.207031 77.347656 129.855469 76.839844 130.933594 C 75.734375 133.265625 75.96875 136.660156 77.308594 137.84375 C 77.996094 138.449219 80.1875 139.160156 82.179688 139.425781 C 85.613281 139.886719 85.902344 139.796875 87.640625 137.734375 C 90.519531 134.320312 90.660156 132.972656 88.472656 129.824219 C 86.347656 126.761719 86.441406 126.84375 85.8125 127.472656 M 92.113281 129.957031 C 92.65625 130.832031 97.171875 131.5 99.164062 131 C 102.320312 130.210938 101.066406 129.515625 96.351562 129.449219 C 93.828125 129.414062 91.921875 129.640625 92.113281 129.957031 M 62.894531 132.742188 C 62.679688 133.089844 63.394531 133.578125 64.484375 133.820312 C 65.578125 134.0625 66.949219 134.386719 67.535156 134.539062 C 68.121094 134.691406 69.5625 134.527344 70.734375 134.179688 L 72.867188 133.542969 L 70.375 133.480469 C 69.003906 133.445312 66.847656 133.125 65.585938 132.761719 C 64.234375 132.375 63.128906 132.367188 62.894531 132.742188 M 98.464844 136.957031 C 98.226562 137.34375 96.210938 138.179688 93.980469 138.816406 C 91.753906 139.453125 89.445312 140.394531 88.851562 140.914062 C 87.675781 141.941406 79.871094 143.375 74.910156 143.472656 C 73.199219 143.507812 71.800781 143.8125 71.800781 144.15625 C 71.800781 144.496094 71.339844 144.773438 70.777344 144.773438 C 68.910156 144.773438 68.886719 146.113281 70.726562 147.316406 C 72.832031 148.695312 80.15625 150.390625 84.160156 150.425781 C 88.925781 150.46875 92.445312 148.933594 96.800781 144.90625 C 100.820312 141.191406 102.070312 139.222656 99.878906 140.0625 C 98.929688 140.429688 98.929688 140.292969 99.882812 138.839844 C 100.886719 137.308594 100.710938 136.257812 99.449219 136.257812 C 99.144531 136.257812 98.703125 136.574219 98.464844 136.957031 M 93.621094 140.203125 C 91.613281 140.75 89.625 141.871094 88.796875 142.917969 C 87.671875 144.351562 86.796875 144.691406 84.394531 144.636719 C 82.746094 144.597656 79.796875 144.894531 77.84375 145.296875 L 74.289062 146.027344 L 79.460938 146.109375 C 85.507812 146.207031 90.941406 144.5625 95.421875 141.273438 C 98.667969 138.886719 98.601562 138.847656 93.621094 140.203125 M 101.660156 157.863281 C 101.660156 158.425781 101.945312 159.0625 102.296875 159.277344 C 103.027344 159.726562 103.910156 157.902344 103.269531 157.261719 C 102.503906 156.5 101.660156 156.816406 101.660156 157.863281 M 101.367188 162.609375 C 101.199219 163.144531 100.867188 164.746094 100.628906 166.171875 C 99.992188 170.003906 98.875 170.597656 93.261719 170.078125 C 88.910156 169.671875 88.207031 169.800781 85.851562 171.394531 C 82.539062 173.644531 81.824219 173.613281 77.242188 171.03125 C 74.78125 169.644531 72.46875 168.902344 70.609375 168.902344 C 68.382812 168.902344 67.605469 168.570312 67.078125 167.398438 C 66.457031 166.007812 66.34375 166.09375 65.605469 168.496094 C 64.816406 171.0625 64.851562 171.136719 67.664062 173.175781 C 77.285156 180.128906 92.628906 180.703125 103.53125 174.515625 C 108.886719 171.472656 109.445312 170.578125 107.167969 168.675781 C 106.148438 167.824219 104.492188 165.894531 103.496094 164.382812 C 102.355469 162.660156 101.5625 162 101.367188 162.609375" style="stroke:none;fill-rule:evenodd;fill:rgb(0%,0%,0%);fill-opacity:1;"/>
</g>
</svg>